<mxfile host="app.diagrams.net" agent="Mozilla/5.0 (Windows NT 10.0; Win64; x64) AppleWebKit/537.36 (KHTML, like Gecko) Chrome/140.0.0.0 Safari/537.36 Edg/140.0.0.0" version="28.2.0">
  <diagram name="第 1 页" id="NWzdm6pY99DFkIUXFUS9">
    <mxGraphModel dx="2245" dy="786" grid="1" gridSize="10" guides="1" tooltips="1" connect="1" arrows="1" fold="1" page="1" pageScale="1" pageWidth="827" pageHeight="1169" math="0" shadow="0">
      <root>
        <mxCell id="0" />
        <mxCell id="1" parent="0" />
        <mxCell id="0SZeNoZCx50WVmB4qU8q-57" value="上公司协同&lt;div&gt;10/9号&lt;/div&gt;" style="shape=umlLifeline;perimeter=lifelinePerimeter;whiteSpace=wrap;html=1;container=1;dropTarget=0;collapsible=0;recursiveResize=0;outlineConnect=0;portConstraint=eastwest;newEdgeStyle={&quot;curved&quot;:0,&quot;rounded&quot;:0};" vertex="1" parent="1">
          <mxGeometry x="340" y="870" width="100" height="500" as="geometry" />
        </mxCell>
        <mxCell id="0SZeNoZCx50WVmB4qU8q-2" value="830" style="shape=umlLifeline;perimeter=lifelinePerimeter;whiteSpace=wrap;html=1;container=1;dropTarget=0;collapsible=0;recursiveResize=0;outlineConnect=0;portConstraint=eastwest;newEdgeStyle={&quot;curved&quot;:0,&quot;rounded&quot;:0};fillColor=#f8cecc;strokeColor=#b85450;" vertex="1" parent="1">
          <mxGeometry x="-140" y="670" width="100" height="680" as="geometry" />
        </mxCell>
        <mxCell id="0SZeNoZCx50WVmB4qU8q-3" value="930" style="shape=umlLifeline;perimeter=lifelinePerimeter;whiteSpace=wrap;html=1;container=1;dropTarget=0;collapsible=0;recursiveResize=0;outlineConnect=0;portConstraint=eastwest;newEdgeStyle={&quot;curved&quot;:0,&quot;rounded&quot;:0};fillColor=#f8cecc;strokeColor=#b85450;" vertex="1" parent="1">
          <mxGeometry x="290" y="670" width="100" height="700" as="geometry" />
        </mxCell>
        <mxCell id="0SZeNoZCx50WVmB4qU8q-4" value="1015" style="shape=umlLifeline;perimeter=lifelinePerimeter;whiteSpace=wrap;html=1;container=1;dropTarget=0;collapsible=0;recursiveResize=0;outlineConnect=0;portConstraint=eastwest;newEdgeStyle={&quot;curved&quot;:0,&quot;rounded&quot;:0};fillColor=#f8cecc;strokeColor=#b85450;" vertex="1" parent="1">
          <mxGeometry x="470" y="670" width="100" height="700" as="geometry" />
        </mxCell>
        <mxCell id="0SZeNoZCx50WVmB4qU8q-10" value="CoMi2.0开发" style="html=1;shape=mxgraph.infographic.ribbonSimple;notch1=20;notch2=20;align=center;verticalAlign=middle;fontSize=14;fontStyle=0;fillColor=#e1d5e7;whiteSpace=wrap;strokeColor=#9673a6;" vertex="1" parent="1">
          <mxGeometry x="-70" y="720" width="410" height="30" as="geometry" />
        </mxCell>
        <mxCell id="0SZeNoZCx50WVmB4qU8q-11" value="最终交付时间&lt;div&gt;9/19号&lt;/div&gt;" style="shape=umlLifeline;perimeter=lifelinePerimeter;whiteSpace=wrap;html=1;container=1;dropTarget=0;collapsible=0;recursiveResize=0;outlineConnect=0;portConstraint=eastwest;newEdgeStyle={&quot;curved&quot;:0,&quot;rounded&quot;:0};" vertex="1" parent="1">
          <mxGeometry x="240" y="790" width="100" height="580" as="geometry" />
        </mxCell>
        <mxCell id="0SZeNoZCx50WVmB4qU8q-12" value="共15天" style="endArrow=open;html=1;endSize=12;startArrow=open;startSize=14;startFill=0;edgeStyle=orthogonalEdgeStyle;align=center;verticalAlign=bottom;endFill=0;rounded=0;" edge="1" parent="1">
          <mxGeometry y="3" relative="1" as="geometry">
            <mxPoint x="-90" y="860" as="sourcePoint" />
            <mxPoint x="280" y="860" as="targetPoint" />
            <Array as="points" />
          </mxGeometry>
        </mxCell>
        <mxCell id="0SZeNoZCx50WVmB4qU8q-13" value="共23天" style="endArrow=open;html=1;endSize=12;startArrow=open;startSize=14;startFill=0;edgeStyle=orthogonalEdgeStyle;align=center;verticalAlign=bottom;endFill=0;rounded=0;" edge="1" parent="1">
          <mxGeometry y="3" relative="1" as="geometry">
            <mxPoint x="-40" y="690" as="sourcePoint" />
            <mxPoint x="280" y="690" as="targetPoint" />
            <Array as="points">
              <mxPoint x="210" y="690" />
              <mxPoint x="210" y="690" />
            </Array>
          </mxGeometry>
        </mxCell>
        <mxCell id="0SZeNoZCx50WVmB4qU8q-14" value="风暴更新" style="fontStyle=0;dashed=1;html=1;whiteSpace=wrap;" vertex="1" parent="1">
          <mxGeometry x="270" y="760" width="140" height="20" as="geometry" />
        </mxCell>
        <mxCell id="0SZeNoZCx50WVmB4qU8q-15" value="共6天" style="endArrow=open;html=1;endSize=12;startArrow=open;startSize=14;startFill=0;edgeStyle=orthogonalEdgeStyle;align=center;verticalAlign=bottom;endFill=0;rounded=0;" edge="1" parent="1">
          <mxGeometry y="3" relative="1" as="geometry">
            <mxPoint x="340" y="854.5" as="sourcePoint" />
            <mxPoint x="520" y="855" as="targetPoint" />
            <Array as="points">
              <mxPoint x="350" y="854.5" />
              <mxPoint x="350" y="854.5" />
            </Array>
          </mxGeometry>
        </mxCell>
        <mxCell id="0SZeNoZCx50WVmB4qU8q-16" value="正式发版" style="fontStyle=0;dashed=1;html=1;whiteSpace=wrap;" vertex="1" parent="1">
          <mxGeometry x="450" y="760" width="140" height="20" as="geometry" />
        </mxCell>
        <mxCell id="0SZeNoZCx50WVmB4qU8q-18" value="&lt;font style=&quot;font-size: 12px;&quot;&gt;ai-V1.0.0-develop&lt;/font&gt;" style="html=1;shape=mxgraph.infographic.ribbonSimple;notch1=20;notch2=20;align=center;verticalAlign=middle;fontSize=14;fontStyle=0;fillColor=#dae8fc;whiteSpace=wrap;strokeColor=#6c8ebf;" vertex="1" parent="1">
          <mxGeometry x="-90" y="900" width="370" height="30" as="geometry" />
        </mxCell>
        <mxCell id="0SZeNoZCx50WVmB4qU8q-23" value="后续客户bug修改提交hotfix分支，发版后&lt;font style=&quot;color: rgb(255, 51, 51);&quot;&gt;禁止直接提交release分支&lt;/font&gt;" style="shape=callout;whiteSpace=wrap;html=1;perimeter=calloutPerimeter;position2=0;" vertex="1" parent="1">
          <mxGeometry x="750" y="1100" width="170" height="100" as="geometry" />
        </mxCell>
        <mxCell id="0SZeNoZCx50WVmB4qU8q-25" value="&lt;font style=&quot;font-size: 12px;&quot;&gt;ai-V1.0.0-develop_portal-930&lt;/font&gt;" style="html=1;shape=mxgraph.infographic.ribbonSimple;notch1=20;notch2=20;align=center;verticalAlign=middle;fontSize=14;fontStyle=0;fillColor=#ffe6cc;whiteSpace=wrap;strokeColor=#d79b00;" vertex="1" parent="1">
          <mxGeometry x="-90" y="970" width="220" height="30" as="geometry" />
        </mxCell>
        <mxCell id="0SZeNoZCx50WVmB4qU8q-26" value="&lt;font style=&quot;font-size: 12px;&quot;&gt;ai-V1.0.0-develop_xxx&lt;/font&gt;" style="html=1;shape=mxgraph.infographic.ribbonSimple;notch1=20;notch2=20;align=center;verticalAlign=middle;fontSize=14;fontStyle=0;fillColor=#ffe6cc;whiteSpace=wrap;strokeColor=#d79b00;" vertex="1" parent="1">
          <mxGeometry x="-40" y="1025" width="220" height="30" as="geometry" />
        </mxCell>
        <mxCell id="0SZeNoZCx50WVmB4qU8q-28" value="" style="shape=flexArrow;endArrow=classic;html=1;rounded=0;width=11;endSize=5.52;exitX=1;exitY=0.5;exitDx=0;exitDy=0;exitPerimeter=0;fillColor=#fff2cc;strokeColor=#d6b656;" edge="1" parent="1">
          <mxGeometry width="50" height="50" relative="1" as="geometry">
            <mxPoint x="130" y="980" as="sourcePoint" />
            <mxPoint x="130" y="930" as="targetPoint" />
            <Array as="points">
              <mxPoint x="130" y="945" />
            </Array>
          </mxGeometry>
        </mxCell>
        <mxCell id="0SZeNoZCx50WVmB4qU8q-29" value="合并" style="edgeLabel;html=1;align=center;verticalAlign=middle;resizable=0;points=[];" vertex="1" connectable="0" parent="0SZeNoZCx50WVmB4qU8q-28">
          <mxGeometry x="-0.32" y="1" relative="1" as="geometry">
            <mxPoint as="offset" />
          </mxGeometry>
        </mxCell>
        <mxCell id="0SZeNoZCx50WVmB4qU8q-32" value="" style="shape=flexArrow;endArrow=classic;html=1;rounded=0;width=14;endSize=11.5;fillColor=#fff2cc;strokeColor=#d6b656;" edge="1" parent="1">
          <mxGeometry width="50" height="50" relative="1" as="geometry">
            <mxPoint x="289.5" y="930" as="sourcePoint" />
            <mxPoint x="289.5" y="1070" as="targetPoint" />
            <Array as="points">
              <mxPoint x="289.5" y="1010" />
            </Array>
          </mxGeometry>
        </mxCell>
        <mxCell id="0SZeNoZCx50WVmB4qU8q-33" value="拉取" style="edgeLabel;html=1;align=center;verticalAlign=middle;resizable=0;points=[];" vertex="1" connectable="0" parent="0SZeNoZCx50WVmB4qU8q-32">
          <mxGeometry x="-0.2571" y="-4" relative="1" as="geometry">
            <mxPoint x="5" y="-2" as="offset" />
          </mxGeometry>
        </mxCell>
        <mxCell id="0SZeNoZCx50WVmB4qU8q-34" value="ai-V2.0.0-develop" style="html=1;shape=mxgraph.infographic.ribbonSimple;notch1=20;notch2=20;align=center;verticalAlign=middle;fontSize=12;fontStyle=0;fillColor=#dae8fc;whiteSpace=wrap;strokeColor=#6c8ebf;" vertex="1" parent="1">
          <mxGeometry x="280" y="1070" width="440" height="30" as="geometry" />
        </mxCell>
        <mxCell id="0SZeNoZCx50WVmB4qU8q-42" value="" style="shape=flexArrow;endArrow=classic;html=1;rounded=0;width=14;endSize=11.5;fillColor=#fff2cc;strokeColor=#d6b656;" edge="1" parent="1" target="0SZeNoZCx50WVmB4qU8q-4">
          <mxGeometry width="50" height="50" relative="1" as="geometry">
            <mxPoint x="519" y="1210" as="sourcePoint" />
            <mxPoint x="520" y="1290" as="targetPoint" />
            <Array as="points">
              <mxPoint x="519" y="1290" />
            </Array>
          </mxGeometry>
        </mxCell>
        <mxCell id="0SZeNoZCx50WVmB4qU8q-43" value="拉取" style="edgeLabel;html=1;align=center;verticalAlign=middle;resizable=0;points=[];" vertex="1" connectable="0" parent="0SZeNoZCx50WVmB4qU8q-42">
          <mxGeometry x="-0.2571" y="-4" relative="1" as="geometry">
            <mxPoint x="5" as="offset" />
          </mxGeometry>
        </mxCell>
        <mxCell id="0SZeNoZCx50WVmB4qU8q-44" value="&lt;span style=&quot;font-size: 11px;&quot;&gt;ai-V2.0.0-release_20250930&lt;/span&gt;" style="html=1;shape=mxgraph.infographic.ribbonSimple;notch1=20;notch2=20;align=center;verticalAlign=middle;fontSize=14;fontStyle=0;fillColor=#d5e8d4;whiteSpace=wrap;strokeColor=#82b366;" vertex="1" parent="1">
          <mxGeometry x="520" y="1290" width="200" height="30" as="geometry" />
        </mxCell>
        <mxCell id="0SZeNoZCx50WVmB4qU8q-45" value="&lt;span style=&quot;color: rgb(31, 31, 31); font-family: consolas, &amp;quot;lucida console&amp;quot;, &amp;quot;courier new&amp;quot;, monospace; text-align: left; white-space-collapse: preserve;&quot;&gt;&lt;font style=&quot;font-size: 11px;&quot;&gt;&lt;span style=&quot;color: rgb(0, 0, 0); font-family: Helvetica; text-align: center; white-space-collapse: collapse;&quot;&gt;ai-V2.0.0&lt;/span&gt;&lt;span style=&quot;color: rgb(0, 0, 0); font-family: Helvetica; text-align: center; white-space-collapse: collapse;&quot;&gt;-&lt;/span&gt;hotfix_20250930&lt;/font&gt;&lt;/span&gt;" style="html=1;shape=mxgraph.infographic.ribbonSimple;notch1=20;notch2=20;align=center;verticalAlign=middle;fontSize=14;fontStyle=0;fillColor=#d5e8d4;whiteSpace=wrap;strokeColor=#82b366;" vertex="1" parent="1">
          <mxGeometry x="400" y="1180" width="320" height="30" as="geometry" />
        </mxCell>
        <mxCell id="0SZeNoZCx50WVmB4qU8q-48" value="" style="endArrow=classic;html=1;rounded=0;exitX=0.753;exitY=1.067;exitDx=0;exitDy=0;exitPerimeter=0;entryX=0.605;entryY=0;entryDx=0;entryDy=0;entryPerimeter=0;" edge="1" parent="1" source="0SZeNoZCx50WVmB4qU8q-45" target="0SZeNoZCx50WVmB4qU8q-44">
          <mxGeometry width="50" height="50" relative="1" as="geometry">
            <mxPoint x="650" y="1230" as="sourcePoint" />
            <mxPoint x="640" y="1280" as="targetPoint" />
          </mxGeometry>
        </mxCell>
        <mxCell id="0SZeNoZCx50WVmB4qU8q-49" value="&lt;font style=&quot;font-size: 14px;&quot;&gt;测试完成后，&lt;/font&gt;&lt;div&gt;&lt;font style=&quot;font-size: 14px;&quot;&gt;CICD自动同步到release&lt;/font&gt;&lt;/div&gt;" style="edgeLabel;html=1;align=center;verticalAlign=middle;resizable=0;points=[];" vertex="1" connectable="0" parent="0SZeNoZCx50WVmB4qU8q-48">
          <mxGeometry x="0.0531" y="3" relative="1" as="geometry">
            <mxPoint as="offset" />
          </mxGeometry>
        </mxCell>
        <mxCell id="0SZeNoZCx50WVmB4qU8q-50" value="各自scrum分支，开发演示完成后，合并到主干" style="rounded=0;whiteSpace=wrap;html=1;" vertex="1" parent="1">
          <mxGeometry x="-60" y="1070" width="230" height="50" as="geometry" />
        </mxCell>
        <mxCell id="0SZeNoZCx50WVmB4qU8q-52" value="系统测试" style="html=1;shape=mxgraph.infographic.ribbonSimple;notch1=20;notch2=20;align=center;verticalAlign=middle;fontSize=14;fontStyle=0;fillColor=#e1d5e7;whiteSpace=wrap;strokeColor=#9673a6;" vertex="1" parent="1">
          <mxGeometry x="340" y="720" width="180" height="30" as="geometry" />
        </mxCell>
        <mxCell id="0SZeNoZCx50WVmB4qU8q-53" value="" style="shape=flexArrow;endArrow=classic;html=1;rounded=0;width=11;endSize=5.52;exitX=1;exitY=0.5;exitDx=0;exitDy=0;exitPerimeter=0;entryX=0.757;entryY=1;entryDx=0;entryDy=0;entryPerimeter=0;fillColor=#fff2cc;strokeColor=#d6b656;" edge="1" parent="1" target="0SZeNoZCx50WVmB4qU8q-18">
          <mxGeometry width="50" height="50" relative="1" as="geometry">
            <mxPoint x="190" y="1040" as="sourcePoint" />
            <mxPoint x="190" y="990" as="targetPoint" />
            <Array as="points">
              <mxPoint x="190" y="1005" />
            </Array>
          </mxGeometry>
        </mxCell>
        <mxCell id="0SZeNoZCx50WVmB4qU8q-54" value="合并" style="edgeLabel;html=1;align=center;verticalAlign=middle;resizable=0;points=[];" vertex="1" connectable="0" parent="0SZeNoZCx50WVmB4qU8q-53">
          <mxGeometry x="-0.32" y="1" relative="1" as="geometry">
            <mxPoint as="offset" />
          </mxGeometry>
        </mxCell>
        <mxCell id="0SZeNoZCx50WVmB4qU8q-60" value="" style="shape=flexArrow;endArrow=classic;html=1;rounded=0;width=14;endSize=11.5;fillColor=#fff2cc;strokeColor=#d6b656;" edge="1" parent="1">
          <mxGeometry width="50" height="50" relative="1" as="geometry">
            <mxPoint x="389" y="1100" as="sourcePoint" />
            <mxPoint x="389" y="1180" as="targetPoint" />
            <Array as="points">
              <mxPoint x="389" y="1180" />
            </Array>
          </mxGeometry>
        </mxCell>
        <mxCell id="0SZeNoZCx50WVmB4qU8q-61" value="拉取" style="edgeLabel;html=1;align=center;verticalAlign=middle;resizable=0;points=[];" vertex="1" connectable="0" parent="0SZeNoZCx50WVmB4qU8q-60">
          <mxGeometry x="-0.2571" y="-4" relative="1" as="geometry">
            <mxPoint x="5" y="-2" as="offset" />
          </mxGeometry>
        </mxCell>
        <mxCell id="0SZeNoZCx50WVmB4qU8q-62" value="" style="shape=flexArrow;endArrow=classic;html=1;rounded=0;width=14;endSize=11.5;fillColor=#fff2cc;strokeColor=#d6b656;" edge="1" parent="1">
          <mxGeometry width="50" height="50" relative="1" as="geometry">
            <mxPoint x="460" y="1170" as="sourcePoint" />
            <mxPoint x="460" y="1100" as="targetPoint" />
            <Array as="points">
              <mxPoint x="460" y="1100" />
            </Array>
          </mxGeometry>
        </mxCell>
        <mxCell id="0SZeNoZCx50WVmB4qU8q-65" value="每日反合并" style="edgeLabel;html=1;align=center;verticalAlign=middle;resizable=0;points=[];" vertex="1" connectable="0" parent="0SZeNoZCx50WVmB4qU8q-62">
          <mxGeometry x="-0.3143" y="-1" relative="1" as="geometry">
            <mxPoint as="offset" />
          </mxGeometry>
        </mxCell>
        <mxCell id="0SZeNoZCx50WVmB4qU8q-67" value="合并完成后，jirabug直接在主干上修改" style="shape=callout;whiteSpace=wrap;html=1;perimeter=calloutPerimeter;position2=0;size=30;position=0.26;fillColor=#fa6800;fontColor=#000000;strokeColor=#C73500;" vertex="1" parent="1">
          <mxGeometry x="305" y="990" width="170" height="70" as="geometry" />
        </mxCell>
        <mxCell id="0SZeNoZCx50WVmB4qU8q-68" value="上完公司协同，会拉取hotfix，bug都往hotfix提交" style="shape=callout;whiteSpace=wrap;html=1;perimeter=calloutPerimeter;position2=1;size=20;position=0.68;base=19;fillColor=#fa6800;fontColor=#000000;strokeColor=#C73500;" vertex="1" parent="1">
          <mxGeometry x="190" y="1120" width="180" height="60" as="geometry" />
        </mxCell>
        <mxCell id="0SZeNoZCx50WVmB4qU8q-69" value="" style="shape=flexArrow;endArrow=classic;html=1;rounded=0;width=14;endSize=11.5;fillColor=#fff2cc;strokeColor=#d6b656;" edge="1" parent="1">
          <mxGeometry width="50" height="50" relative="1" as="geometry">
            <mxPoint x="640" y="1170" as="sourcePoint" />
            <mxPoint x="640" y="1100" as="targetPoint" />
            <Array as="points">
              <mxPoint x="640" y="1100" />
            </Array>
          </mxGeometry>
        </mxCell>
        <mxCell id="0SZeNoZCx50WVmB4qU8q-70" value="发版后修改客户bug后必须反合并主干" style="edgeLabel;html=1;align=center;verticalAlign=middle;resizable=0;points=[];" vertex="1" connectable="0" parent="0SZeNoZCx50WVmB4qU8q-69">
          <mxGeometry x="-0.3143" y="-1" relative="1" as="geometry">
            <mxPoint as="offset" />
          </mxGeometry>
        </mxCell>
      </root>
    </mxGraphModel>
  </diagram>
</mxfile>
